<svg xmlns="http://www.w3.org/2000/svg" version="1.1" xmlns:xlink="http://www.w3.org/1999/xlink" xmlns:svgjs="http://svgjs.dev/svgjs" viewBox="0 0 325 100"><rect width="100%" height="100%" fill="hsl(283, 72%, 59%)"></rect><g fill="hsl(292, 63%, 78%)">
    <rect width="100%" height="40" fill="hsl(292, 63%, 78%)"></rect>

    <rect x="0" width="7.69%" height="58.99372146296684" rx="15"></rect>
      <rect x="50" width="7.69%" height="66.15336774303915" rx="15"></rect>
      <rect x="100" width="7.69%" height="74.68963823563156" rx="15"></rect>
      <rect x="150" width="7.69%" height="67.0989552696623" rx="15"></rect>
      <rect x="200" width="7.69%" height="80.03965947547809" rx="15"></rect>
      <rect x="250" width="7.69%" height="76.27403258175016" rx="15"></rect>
      <rect x="300" width="7.69%" height="89.62890765359217" rx="15"></rect>
  </g><g fill="hsl(283, 72%, 59%)">
    <rect x="25" y="4.381611253895305" width="7.69%" height="60" rx="15"></rect>
      <rect x="75" y="7.340271478049371" width="7.69%" height="60" rx="15"></rect>
      <rect x="125" y="14.8689963999531" width="7.69%" height="60" rx="15"></rect>
      <rect x="175" y="9.006039108693987" width="7.69%" height="60" rx="15"></rect>
      <rect x="225" y="14.261193659730669" width="7.69%" height="60" rx="15"></rect>
      <rect x="275" y="10.654384609094587" width="7.69%" height="60" rx="15"></rect>
  </g></svg>